<mxfile host="app.diagrams.net" modified="2024-07-22T23:39:09.989Z" agent="Mozilla/5.0 (Macintosh; Intel Mac OS X 10_15_7) AppleWebKit/537.36 (KHTML, like Gecko) Chrome/126.0.0.0 Safari/537.36" etag="Nd5K37K3awmbg3pKUfcW" version="24.6.4" type="github">
  <diagram name="Page-1" id="EP4QQ97qRVcQPSVcsZwG">
    <mxGraphModel dx="2266" dy="862" grid="1" gridSize="10" guides="1" tooltips="1" connect="1" arrows="1" fold="1" page="1" pageScale="1" pageWidth="850" pageHeight="1100" math="0" shadow="0">
      <root>
        <mxCell id="0" />
        <mxCell id="1" parent="0" />
        <mxCell id="vElNvXLOMFflJyX5Zzp4-1" value="" style="rounded=0;whiteSpace=wrap;html=1;dashed=1;strokeColor=#6c8ebf;fillColor=#dae8fc;" vertex="1" parent="1">
          <mxGeometry x="225" y="179" width="400" height="200" as="geometry" />
        </mxCell>
        <mxCell id="QRoZpUSQXtjQfJ5ine1u-7" value="" style="verticalLabelPosition=bottom;html=1;verticalAlign=top;align=center;strokeColor=none;fillColor=#00BEF2;shape=mxgraph.azure.cloud;" parent="1" vertex="1">
          <mxGeometry x="260" y="400" width="320" height="202.5" as="geometry" />
        </mxCell>
        <mxCell id="QRoZpUSQXtjQfJ5ine1u-1" value="" style="shape=cylinder3;whiteSpace=wrap;html=1;boundedLbl=1;backgroundOutline=1;size=15;fillColor=#d5e8d4;strokeColor=#82b366;" parent="1" vertex="1">
          <mxGeometry x="30" y="279" width="60" height="80" as="geometry" />
        </mxCell>
        <mxCell id="QRoZpUSQXtjQfJ5ine1u-2" value="" style="shape=cylinder3;whiteSpace=wrap;html=1;boundedLbl=1;backgroundOutline=1;size=15;fillColor=#d5e8d4;strokeColor=#82b366;" parent="1" vertex="1">
          <mxGeometry x="750" y="279" width="60" height="80" as="geometry" />
        </mxCell>
        <mxCell id="QRoZpUSQXtjQfJ5ine1u-3" value="Kafka Connect Cluster" style="rounded=1;whiteSpace=wrap;html=1;fillColor=#f5f5f5;fontColor=#333333;strokeColor=#666666;" parent="1" vertex="1">
          <mxGeometry x="250" y="209" width="350" height="60" as="geometry" />
        </mxCell>
        <mxCell id="QRoZpUSQXtjQfJ5ine1u-4" value="Source Connector" style="rounded=1;whiteSpace=wrap;html=1;fillColor=#fff2cc;strokeColor=#d6b656;" parent="1" vertex="1">
          <mxGeometry x="250" y="289" width="170" height="60" as="geometry" />
        </mxCell>
        <mxCell id="QRoZpUSQXtjQfJ5ine1u-5" value="Sink Connector" style="rounded=1;whiteSpace=wrap;html=1;fillColor=#ffe6cc;strokeColor=#d79b00;" parent="1" vertex="1">
          <mxGeometry x="430" y="289" width="170" height="60" as="geometry" />
        </mxCell>
        <mxCell id="QRoZpUSQXtjQfJ5ine1u-6" value="Topics" style="rounded=1;whiteSpace=wrap;html=1;fillColor=#eeeeee;strokeColor=#36393d;" parent="1" vertex="1">
          <mxGeometry x="330" y="500" width="190" height="40" as="geometry" />
        </mxCell>
        <mxCell id="QRoZpUSQXtjQfJ5ine1u-11" value="" style="shape=singleArrow;direction=south;whiteSpace=wrap;html=1;fillColor=#cdeb8b;strokeColor=#36393d;" parent="1" vertex="1">
          <mxGeometry x="320" y="390" width="60" height="100" as="geometry" />
        </mxCell>
        <mxCell id="QRoZpUSQXtjQfJ5ine1u-12" value="" style="shape=singleArrow;direction=north;whiteSpace=wrap;html=1;fillColor=#cdeb8b;strokeColor=#36393d;" parent="1" vertex="1">
          <mxGeometry x="470" y="390" width="60" height="100" as="geometry" />
        </mxCell>
        <mxCell id="QRoZpUSQXtjQfJ5ine1u-13" value="" style="shape=singleArrow;whiteSpace=wrap;html=1;fillColor=#cdeb8b;strokeColor=#36393d;" parent="1" vertex="1">
          <mxGeometry x="120" y="289" width="100" height="60" as="geometry" />
        </mxCell>
        <mxCell id="QRoZpUSQXtjQfJ5ine1u-14" value="" style="shape=singleArrow;whiteSpace=wrap;html=1;fillColor=#cdeb8b;strokeColor=#36393d;" parent="1" vertex="1">
          <mxGeometry x="630" y="289" width="100" height="60" as="geometry" />
        </mxCell>
        <mxCell id="QRoZpUSQXtjQfJ5ine1u-16" value="" style="shape=image;html=1;verticalAlign=top;verticalLabelPosition=bottom;labelBackgroundColor=#ffffff;imageAspect=0;aspect=fixed;image=https://cdn1.iconfinder.com/data/icons/flat-christmas-icons-1/75/_snowflake-128.png" parent="1" vertex="1">
          <mxGeometry x="790" y="279" width="38" height="38" as="geometry" />
        </mxCell>
        <mxCell id="QRoZpUSQXtjQfJ5ine1u-17" value="" style="verticalLabelPosition=bottom;html=1;verticalAlign=top;align=center;strokeColor=none;fillColor=#00BEF2;shape=mxgraph.azure.mysql_database;" parent="1" vertex="1">
          <mxGeometry x="80" y="279" width="27.5" height="33" as="geometry" />
        </mxCell>
        <mxCell id="QRoZpUSQXtjQfJ5ine1u-18" value="External Data Platform" style="text;html=1;align=center;verticalAlign=middle;resizable=0;points=[];autosize=1;strokeColor=none;fillColor=none;" parent="1" vertex="1">
          <mxGeometry y="379" width="140" height="30" as="geometry" />
        </mxCell>
        <mxCell id="QRoZpUSQXtjQfJ5ine1u-19" value="External Data Platform" style="text;html=1;align=center;verticalAlign=middle;resizable=0;points=[];autosize=1;strokeColor=none;fillColor=none;" parent="1" vertex="1">
          <mxGeometry x="700" y="370" width="140" height="30" as="geometry" />
        </mxCell>
        <mxCell id="QRoZpUSQXtjQfJ5ine1u-20" value="Kafka Cluster" style="text;html=1;align=center;verticalAlign=middle;resizable=0;points=[];autosize=1;strokeColor=none;fillColor=none;" parent="1" vertex="1">
          <mxGeometry x="380" y="620" width="100" height="30" as="geometry" />
        </mxCell>
      </root>
    </mxGraphModel>
  </diagram>
</mxfile>
